{
  "accessors": [
    {
      "bufferView": 1,
      "componentType": 5126,
      "count": 65532,
      "max": [
        -4.8640570640563965,
        17.994226455688477,
        14.165919303894043
      ],
      "min": [
        -7.1775288581848145,
        16.577255249023438,
        12.872262001037598
      ],
      "type": "VEC3"
    },
    {
      "bufferView": 1,
      "byteOffset": 786384,
      "componentType": 5126,
      "count": 65532,
      "max": [
        0.9999984502792358,
        0.9999597668647766,
        0.999991774559021
      ],
      "min": [
        -0.9999384880065918,
        -0.9999678730964661,
        -0.9995584487915039
      ],
      "type": "VEC3"
    },
    {
      "bufferView": 2,
      "componentType": 5126,
      "count": 65532,
      "max": [
        0.7921568751335144,
        0.8156862854957581,
        0.7137255072593689,
        1.0
      ],
      "min": [
        0.01568627543747425,
        0.0235294122248888,
        0.003921568859368563,
        1.0
      ],
      "type": "VEC4"
    },
    {
      "bufferView": 0,
      "componentType": 5125,
      "count": 349956,
      "type": "SCALAR"
    },
    {
      "bufferView": 1,
      "byteOffset": 1572768,
      "componentType": 5126,
      "count": 65532,
      "max": [
        -4.870276927947998,
        18.03958511352539,
        13.878351211547852
      ],
      "min": [
        -7.176119804382324,
        16.93967628479004,
        12.750173568725586
      ],
      "type": "VEC3"
    },
    {
      "bufferView": 1,
      "byteOffset": 2359152,
      "componentType": 5126,
      "count": 65532,
      "max": [
        0.9999984502792358,
        0.9999264478683472,
        0.9999853372573853
      ],
      "min": [
        -0.9999182224273682,
        -0.9999983310699463,
        -0.9988718628883362
      ],
      "type": "VEC3"
    },
    {
      "bufferView": 2,
      "byteOffset": 1048512,
      "componentType": 5126,
      "count": 65532,
      "max": [
        0.7843137383460999,
        0.8078431487083435,
        0.6980392336845398,
        1.0
      ],
      "min": [
        0.01568627543747425,
        0.019607843831181526,
        0.0117647061124444,
        1.0
      ],
      "type": "VEC4"
    },
    {
      "bufferView": 0,
      "byteOffset": 1399824,
      "componentType": 5125,
      "count": 352437,
      "type": "SCALAR"
    },
    {
      "bufferView": 1,
      "byteOffset": 3145536,
      "componentType": 5126,
      "count": 65532,
      "max": [
        -4.8790130615234375,
        17.903915405273438,
        13.492368698120117
      ],
      "min": [
        -7.14260721206665,
        16.95047378540039,
        12.877129554748535
      ],
      "type": "VEC3"
    },
    {
      "bufferView": 1,
      "byteOffset": 3931920,
      "componentType": 5126,
      "count": 65532,
      "max": [
        0.9999862313270569,
        0.9999336004257202,
        0.9999962449073792
      ],
      "min": [
        -0.9999729990959167,
        -0.9999170899391174,
        -0.9678930044174194
      ],
      "type": "VEC3"
    },
    {
      "bufferView": 2,
      "byteOffset": 2097024,
      "componentType": 5126,
      "count": 65532,
      "max": [
        0.7960784435272217,
        0.8196078538894653,
        0.7176470756530762,
        1.0
      ],
      "min": [
        0.019607843831181526,
        0.019607843831181526,
        0.0117647061124444,
        1.0
      ],
      "type": "VEC4"
    },
    {
      "bufferView": 0,
      "byteOffset": 2809572,
      "componentType": 5125,
      "count": 355158,
      "type": "SCALAR"
    },
    {
      "bufferView": 1,
      "byteOffset": 4718304,
      "componentType": 5126,
      "count": 63281,
      "max": [
        -4.863979816436768,
        18.037708282470703,
        13.652300834655762
      ],
      "min": [
        -7.165370941162109,
        16.92142677307129,
        12.791269302368164
      ],
      "type": "VEC3"
    },
    {
      "bufferView": 1,
      "byteOffset": 5477676,
      "componentType": 5126,
      "count": 63281,
      "max": [
        0.9999998807907104,
        0.9998894929885864,
        0.9999991059303284
      ],
      "min": [
        -0.999993622303009,
        -0.9999675154685974,
        -0.9992339015007019
      ],
      "type": "VEC3"
    },
    {
      "bufferView": 2,
      "byteOffset": 3145536,
      "componentType": 5126,
      "count": 63281,
      "max": [
        0.7921568751335144,
        0.8156862854957581,
        0.7137255072593689,
        1.0
      ],
      "min": [
        0.019607843831181526,
        0.0235294122248888,
        0.003921568859368563,
        1.0
      ],
      "type": "VEC4"
    },
    {
      "bufferView": 0,
      "byteOffset": 4230204,
      "componentType": 5125,
      "count": 298311,
      "type": "SCALAR"
    }
  ],
  "asset": {
    "extras": {
      "author": "Pure Color Media (https://sketchfab.com/pure.color.media)",
      "license": "CC-BY-4.0 (http://creativecommons.org/licenses/by/4.0/)",
      "source": "https://sketchfab.com/3d-models/plants-on-the-ground-76054992f0754c21bde6958589c6b7e8",
      "title": "Plants on the ground"
    },
    "generator": "Sketchfab-12.67.0",
    "version": "2.0"
  },
  "bufferViews": [
    {
      "buffer": 0,
      "byteLength": 5423448,
      "name": "floatBufferViews",
      "target": 34963
    },
    {
      "buffer": 0,
      "byteLength": 6237048,
      "byteOffset": 5423448,
      "byteStride": 12,
      "name": "floatBufferViews",
      "target": 34962
    },
    {
      "buffer": 0,
      "byteLength": 4158032,
      "byteOffset": 11660496,
      "byteStride": 16,
      "name": "floatBufferViews",
      "target": 34962
    }
  ],
  "buffers": [
    {
      "byteLength": 15818528,
      "uri": "scene.bin"
    }
  ],
  "materials": [
    {
      "doubleSided": true,
      "name": "Solid",
      "pbrMetallicRoughness": {
        "metallicFactor": 0.0,
        "roughnessFactor": 0.6
      }
    }
  ],
  "meshes": [
    {
      "name": "Object_0",
      "primitives": [
        {
          "attributes": {
            "COLOR_0": 2,
            "NORMAL": 1,
            "POSITION": 0
          },
          "indices": 3,
          "material": 0,
          "mode": 4
        }
      ]
    },
    {
      "name": "Object_1",
      "primitives": [
        {
          "attributes": {
            "COLOR_0": 6,
            "NORMAL": 5,
            "POSITION": 4
          },
          "indices": 7,
          "material": 0,
          "mode": 4
        }
      ]
    },
    {
      "name": "Object_2",
      "primitives": [
        {
          "attributes": {
            "COLOR_0": 10,
            "NORMAL": 9,
            "POSITION": 8
          },
          "indices": 11,
          "material": 0,
          "mode": 4
        }
      ]
    },
    {
      "name": "Object_3",
      "primitives": [
        {
          "attributes": {
            "COLOR_0": 14,
            "NORMAL": 13,
            "POSITION": 12
          },
          "indices": 15,
          "material": 0,
          "mode": 4
        }
      ]
    }
  ],
  "nodes": [
    {
      "children": [
        1
      ],
      "matrix": [
        1.0,
        0.0,
        0.0,
        0.0,
        0.0,
        2.220446049250313e-16,
        -1.0,
        0.0,
        0.0,
        1.0,
        2.220446049250313e-16,
        0.0,
        0.0,
        0.0,
        0.0,
        1.0
      ],
      "name": "Sketchfab_model"
    },
    {
      "children": [
        2,
        3,
        4,
        5
      ],
      "name": "gowno.obj.cleaner.materialmerger.gles"
    },
    {
      "mesh": 0,
      "name": "Object_2"
    },
    {
      "mesh": 1,
      "name": "Object_3"
    },
    {
      "mesh": 2,
      "name": "Object_4"
    },
    {
      "mesh": 3,
      "name": "Object_5"
    }
  ],
  "scene": 0,
  "scenes": [
    {
      "name": "Sketchfab_Scene",
      "nodes": [
        0
      ]
    }
  ]
}
